<svg width="356" height="356" viewBox="0 0 356 356" fill="none" xmlns="http://www.w3.org/2000/svg">
    <path d="M129.557 307.874C148.393 319.227 161.831 314.514 166.975 305.41C176.924 287.804 210.003 251.8 262.423 239.632C331.851 223.515 317.352 180.722 274.672 158.266C231.992 135.81 200.079 104.738 204.909 70.9528C209.739 37.1677 161.883 25.5208 140.601 90.5121C126.848 132.512 102.201 143.764 86.4847 146.469C71.6722 149.018 55.4691 152.216 47.5677 165.002C37.9799 180.515 41.3256 196.208 81.4677 206.971C138.353 222.224 87.3369 282.425 129.557 307.874Z" fill="#617995" />
    <path d="M80.6166 234.261C81.4137 233.805 90.4108 229.996 135.17 250.862C135.039 251.04 134.984 251.124 134.984 251.124C134.984 251.124 88.4527 266.794 79.3357 247.489C76.6132 241.742 77.3934 237.785 80.5388 234.306L80.6166 234.261Z" fill="#304962" />
    <path d="M231.056 242.157C221.331 250.332 206.081 256.266 191.367 248.376C193.692 246.89 196.094 245.359 198.543 243.776C213.32 234.281 226.337 240.634 231.056 242.157Z" fill="#304962" />
    <path d="M248.474 141.612C258.409 224.342 234.798 239.357 232.17 241.637C231.409 242.298 231.101 242.249 229.95 241.953L229.93 241.964C225.061 240.673 213.321 234.281 198.543 243.775C196.093 245.358 193.691 246.888 191.366 248.374C176.291 257.935 164.118 264.673 155.347 260.762C147.908 256.967 141.2 253.683 135.17 250.862C90.411 229.995 81.4139 233.804 80.6167 234.261C81.5417 233.757 90.0267 229.054 101.452 220.783C101.491 220.76 101.529 220.738 101.538 220.708C116.809 209.64 137.26 192.2 151.96 169.765C161.967 154.509 171.757 115.834 190.647 108.246C229.468 93.7634 246.862 124.784 248.474 141.612Z" fill="white" />
    <path d="M205.548 140.161C206.753 136.978 206.636 133.985 205.286 133.473C203.936 132.962 201.865 135.127 200.66 138.309C199.455 141.491 199.572 144.485 200.922 144.996C202.272 145.508 204.343 143.343 205.548 140.161Z" fill="#001322" />
    <path d="M230.267 144.221C231.121 140.927 230.68 137.963 229.283 137.601C227.886 137.238 226.06 139.615 225.206 142.908C224.352 146.202 224.793 149.166 226.19 149.528C227.587 149.89 229.412 147.514 230.267 144.221Z" fill="#001322" />
    <path d="M215.22 156.314C215.018 156.313 214.822 156.244 214.664 156.117C214.506 155.99 214.397 155.813 214.354 155.615C214.196 154.898 213.492 152.779 212.376 152.464C211.26 152.148 209.07 153.372 208.184 154.013C207.994 154.151 207.756 154.208 207.524 154.171C207.291 154.134 207.083 154.006 206.945 153.815C206.807 153.624 206.75 153.387 206.787 153.154C206.825 152.922 206.953 152.714 207.143 152.576C207.492 152.323 210.619 150.123 212.858 150.755C215.193 151.414 216.004 154.848 216.088 155.237C216.116 155.367 216.115 155.501 216.085 155.63C216.054 155.759 215.995 155.88 215.912 155.983C215.829 156.087 215.723 156.17 215.603 156.227C215.484 156.284 215.353 156.314 215.22 156.314H215.22Z" fill="#001322" />
</svg>
    